<svg width="30" height="30" viewBox="0 0 30 30" fill="none" xmlns="http://www.w3.org/2000/svg">
<path d="M15 0C6.71667 0 0 6.71667 0 15C0 23.2833 6.71667 30 15 30C23.2833 30 30 23.2833 30 15C30 6.71667 23.2833 0 15 0ZM23.2733 11.5933H20.6267V20.43C20.6267 20.85 20.6733 21.1767 20.7633 21.4C20.8533 21.6167 20.9633 21.7833 21.0933 21.8867C21.2233 21.99 21.3667 22.0533 21.52 22.07C21.6967 22.0933 21.8733 22.1033 22.05 22.1033C22.2833 22.1033 22.4833 22.1 22.66 22.0933C22.8667 22.0833 22.9567 22.0633 22.9967 22.0467L23.2033 21.9633V22.78L23.07 22.7967C22.9333 22.8133 22.8 22.8267 22.67 22.8433C22.5333 22.86 22.2933 22.8667 21.9333 22.8667C21.3667 22.8667 20.8767 22.6967 20.48 22.3633C20.0733 22.0233 19.8667 21.4033 19.8667 20.5233V11.5933H17.7733H17.72H15.1267V20.43C15.1267 20.85 15.1733 21.1767 15.2633 21.4C15.3533 21.6167 15.4633 21.7833 15.5933 21.8867C15.7233 21.99 15.8667 22.0533 16.02 22.07C16.1967 22.0933 16.3733 22.1033 16.55 22.1033C16.7833 22.1033 16.9833 22.1 17.16 22.0933C17.3667 22.0833 17.4567 22.0633 17.4967 22.0467L17.7033 21.9633V22.78L17.57 22.7967C17.4333 22.8133 17.3 22.8267 17.17 22.8433C17.0333 22.86 16.7933 22.8667 16.4333 22.8667C15.8667 22.8667 15.3767 22.6967 14.98 22.3633C14.5733 22.0233 14.3667 21.4033 14.3667 20.5233V11.5933H12.2733H12.22H9.62667V20.43C9.62667 20.85 9.67333 21.1767 9.76333 21.4C9.85333 21.6167 9.96333 21.7833 10.0933 21.8867C10.2233 21.99 10.3667 22.0533 10.52 22.07C10.6967 22.0933 10.8733 22.1033 11.05 22.1033C11.2833 22.1033 11.4833 22.1 11.66 22.0933C11.8667 22.0833 11.9567 22.0633 11.9967 22.0467L12.2033 21.9633V22.78L12.07 22.7967C11.9333 22.8133 11.8 22.8267 11.67 22.8433C11.5333 22.86 11.2933 22.8667 10.9333 22.8667C10.3667 22.8667 9.87667 22.6967 9.48 22.3633C9.07333 22.0233 8.86667 21.4033 8.86667 20.5233V11.5933H6.72333V10.8333H8.86667V7.13667H9.62667V10.8333H12.22H12.2733H14.3667V7.13667H15.1267V10.8333H17.72H17.7733H19.8667V7.13667H20.6267V10.8333H23.2733V11.5933Z" fill="white"/>
</svg>
